<?xml version="1.0" encoding="UTF-8" standalone="no"?>
<!-- Created with Inkscape (http://www.inkscape.org/) -->

<svg
   xmlns:dc="http://purl.org/dc/elements/1.1/"
   xmlns:cc="http://creativecommons.org/ns#"
   xmlns:rdf="http://www.w3.org/1999/02/22-rdf-syntax-ns#"
   xmlns:svg="http://www.w3.org/2000/svg"
   xmlns="http://www.w3.org/2000/svg"
   xmlns:sodipodi="http://sodipodi.sourceforge.net/DTD/sodipodi-0.dtd"
   xmlns:inkscape="http://www.inkscape.org/namespaces/inkscape"
   width="255.47308"
   height="255.97534"
   id="svg9920"
   version="1.1"
   inkscape:version="0.48.2 r9819"
   sodipodi:docname="New document 19">
  <defs
     id="defs9922" />
  <sodipodi:namedview
     id="base"
     pagecolor="#ffffff"
     bordercolor="#666666"
     borderopacity="1.0"
     inkscape:pageopacity="0.0"
     inkscape:pageshadow="2"
     inkscape:zoom="0.35"
     inkscape:cx="300.0354"
     inkscape:cy="-104.97423"
     inkscape:document-units="px"
     inkscape:current-layer="layer1"
     showgrid="false"
     fit-margin-top="0"
     fit-margin-left="0"
     fit-margin-right="0"
     fit-margin-bottom="0"
     inkscape:window-width="1280"
     inkscape:window-height="962"
     inkscape:window-x="-8"
     inkscape:window-y="-8"
     inkscape:window-maximized="1" />
  <metadata
     id="metadata9925">
    <rdf:RDF>
      <cc:Work
         rdf:about="">
        <dc:format>image/svg+xml</dc:format>
        <dc:type
           rdf:resource="http://purl.org/dc/dcmitype/StillImage" />
        <dc:title></dc:title>
      </cc:Work>
    </rdf:RDF>
  </metadata>
  <g
     inkscape:label="Layer 1"
     inkscape:groupmode="layer"
     id="layer1"
     transform="translate(-74.964599,-195.69832)">
    <path
       style="fill:#000000"
       d="m 115.35715,450.76021 c -22.799896,-3.1388 -41.595466,-25.13388 -39.798211,-48.32774 -0.351999,-38.5553 -1.225511,-77.15368 0.171018,-115.69053 3.045455,-22.31083 22.90155,-41.70065 45.949513,-41.11547 21.04232,-0.50338 42.15386,-1.27189 63.17768,-0.16896 -8.88946,10.31019 -18.96316,19.53571 -28.5,29.24417 -13.76621,0.57626 -27.73716,-0.54894 -41.33029,1.66056 -6.565,3.56693 -12.09676,10.66909 -10.66971,18.43396 0,37.83151 0,75.66303 0,113.49455 3.11542,6.51294 8.67687,13.38267 16.16848,14 39.27717,0 78.55435,0 117.83152,0 10.33217,-3.95986 14.85846,-14.55436 13.20013,-25.17101 0.1504,-8.65547 0.27483,-17.31138 0.41311,-25.96705 10.00878,-9.95398 20.01756,-19.90796 30.02634,-29.86194 -0.65157,24.33651 0.40964,48.78399 -1.92604,73.0266 -4.46492,23.09961 -28.40767,38.99298 -51.37245,36.98082 -37.77105,0.33163 -75.59144,0.84895 -113.34109,-0.53796 z M 205.2009,368.6961 c -14.72254,-3.40545 -23.64743,-17.10252 -34.30851,-26.7083 -10.51288,-8.52767 -16.64193,-23.52614 -10.39239,-36.36179 10.5401,-15.55539 25.4749,-27.65716 38.28084,-41.33535 4.89659,-8.41139 24.13597,-16.52015 17.9978,-25.64623 -11.00208,-12.41882 -24.24276,-22.90953 -33.95174,-36.41576 2.74549,-11.12803 23.51087,-4.15472 33.34739,-6.36437 34.426,0.45122 68.93608,-0.73398 103.30604,1.42468 15.8882,2.22567 8.93585,23.16689 10.7943,34.22389 -0.22229,35.91537 0.87928,71.88122 -0.73256,107.76471 -4.85281,13.62467 -18.28552,-9.44601 -25.34611,-13.69774 -6.4575,-6.40364 -12.915,-12.80727 -19.3725,-19.21091 -20.1558,19.60132 -39.31059,40.30287 -60.51579,58.77156 -5.43761,3.67418 -12.71302,4.65418 -19.10677,3.55561 z"
       id="path9939"
       inkscape:connector-curvature="0" />
  </g>
</svg>
